solid Maze
   facet normal -1.000000e+000 0.000000e+000 0.000000e+000
      outer loop
         vertex 3.020000e+000 4.000000e-001 2.040000e+000
         vertex 3.020000e+000 4.000000e-001 2.000000e+000
         vertex 3.020000e+000 0.000000e+000 2.040000e+000
      endloop
   endfacet
   facet normal -1.000000e+000 0.000000e+000 0.000000e+000
      outer loop
         vertex 3.020000e+000 0.000000e+000 2.040000e+000
         vertex 3.020000e+000 4.000000e-001 2.000000e+000
         vertex 3.020000e+000 0.000000e+000 2.000000e+000
      endloop
   endfacet
   facet normal 0.000000e+000 0.000000e+000 1.000000e+000
      outer loop
         vertex 7.040000e+000 4.000000e-001 2.040000e+000
         vertex 3.020000e+000 4.000000e-001 2.040000e+000
         vertex 7.040000e+000 0.000000e+000 2.040000e+000
      endloop
   endfacet
   facet normal 0.000000e+000 0.000000e+000 1.000000e+000
      outer loop
         vertex 7.040000e+000 0.000000e+000 2.040000e+000
         vertex 3.020000e+000 4.000000e-001 2.040000e+000
         vertex 3.020000e+000 0.000000e+000 2.040000e+000
      endloop
   endfacet
   facet normal 1.000000e+000 0.000000e+000 0.000000e+000
      outer loop
         vertex 7.040000e+000 4.000000e-001 1.000000e+000
         vertex 7.040000e+000 4.000000e-001 2.040000e+000
         vertex 7.040000e+000 0.000000e+000 1.000000e+000
      endloop
   endfacet
   facet normal 1.000000e+000 0.000000e+000 0.000000e+000
      outer loop
         vertex 7.040000e+000 0.000000e+000 1.000000e+000
         vertex 7.040000e+000 4.000000e-001 2.040000e+000
         vertex 7.040000e+000 0.000000e+000 2.040000e+000
      endloop
   endfacet
   facet normal 0.000000e+000 0.000000e+000 -1.000000e+000
      outer loop
         vertex 1.000000e+000 4.000000e-001 1.000000e+000
         vertex 7.040000e+000 4.000000e-001 1.000000e+000
         vertex 1.000000e+000 0.000000e+000 1.000000e+000
      endloop
   endfacet
   facet normal 0.000000e+000 0.000000e+000 -1.000000e+000
      outer loop
         vertex 1.000000e+000 0.000000e+000 1.000000e+000
         vertex 7.040000e+000 4.000000e-001 1.000000e+000
         vertex 7.040000e+000 0.000000e+000 1.000000e+000
      endloop
   endfacet
   facet normal -1.000000e+000 0.000000e+000 0.000000e+000
      outer loop
         vertex 1.000000e+000 4.000000e-001 5.000000e+000
         vertex 1.000000e+000 4.000000e-001 1.000000e+000
         vertex 1.000000e+000 0.000000e+000 5.000000e+000
      endloop
   endfacet
   facet normal -1.000000e+000 0.000000e+000 0.000000e+000
      outer loop
         vertex 1.000000e+000 0.000000e+000 5.000000e+000
         vertex 1.000000e+000 4.000000e-001 1.000000e+000
         vertex 1.000000e+000 0.000000e+000 1.000000e+000
      endloop
   endfacet
   facet normal 0.000000e+000 0.000000e+000 -1.000000e+000
      outer loop
         vertex 4.000000e-002 4.000000e-001 5.000000e+000
         vertex 1.000000e+000 4.000000e-001 5.000000e+000
         vertex 4.000000e-002 0.000000e+000 5.000000e+000
      endloop
   endfacet
   facet normal 0.000000e+000 0.000000e+000 -1.000000e+000
      outer loop
         vertex 4.000000e-002 0.000000e+000 5.000000e+000
         vertex 1.000000e+000 4.000000e-001 5.000000e+000
         vertex 1.000000e+000 0.000000e+000 5.000000e+000
      endloop
   endfacet
   facet normal -1.000000e+000 0.000000e+000 0.000000e+000
      outer loop
         vertex 4.000000e-002 4.000000e-001 5.040000e+000
         vertex 4.000000e-002 4.000000e-001 5.000000e+000
         vertex 4.000000e-002 0.000000e+000 5.040000e+000
      endloop
   endfacet
   facet normal -1.000000e+000 0.000000e+000 0.000000e+000
      outer loop
         vertex 4.000000e-002 0.000000e+000 5.040000e+000
         vertex 4.000000e-002 4.000000e-001 5.000000e+000
         vertex 4.000000e-002 0.000000e+000 5.000000e+000
      endloop
   endfacet
   facet normal 0.000000e+000 0.000000e+000 1.000000e+000
      outer loop
         vertex 1.040000e+000 4.000000e-001 5.040000e+000
         vertex 4.000000e-002 4.000000e-001 5.040000e+000
         vertex 1.040000e+000 0.000000e+000 5.040000e+000
      endloop
   endfacet
   facet normal 0.000000e+000 0.000000e+000 1.000000e+000
      outer loop
         vertex 1.040000e+000 0.000000e+000 5.040000e+000
         vertex 4.000000e-002 4.000000e-001 5.040000e+000
         vertex 4.000000e-002 0.000000e+000 5.040000e+000
      endloop
   endfacet
   facet normal 1.000000e+000 0.000000e+000 0.000000e+000
      outer loop
         vertex 1.040000e+000 4.000000e-001 1.040000e+000
         vertex 1.040000e+000 4.000000e-001 5.040000e+000
         vertex 1.040000e+000 0.000000e+000 1.040000e+000
      endloop
   endfacet
   facet normal 1.000000e+000 0.000000e+000 0.000000e+000
      outer loop
         vertex 1.040000e+000 0.000000e+000 1.040000e+000
         vertex 1.040000e+000 4.000000e-001 5.040000e+000
         vertex 1.040000e+000 0.000000e+000 5.040000e+000
      endloop
   endfacet
   facet normal 0.000000e+000 0.000000e+000 1.000000e+000
      outer loop
         vertex 7.000000e+000 4.000000e-001 1.040000e+000
         vertex 1.040000e+000 4.000000e-001 1.040000e+000
         vertex 7.000000e+000 0.000000e+000 1.040000e+000
      endloop
   endfacet
   facet normal 0.000000e+000 0.000000e+000 1.000000e+000
      outer loop
         vertex 7.000000e+000 0.000000e+000 1.040000e+000
         vertex 1.040000e+000 4.000000e-001 1.040000e+000
         vertex 1.040000e+000 0.000000e+000 1.040000e+000
      endloop
   endfacet
   facet normal -1.000000e+000 0.000000e+000 0.000000e+000
      outer loop
         vertex 7.000000e+000 4.000000e-001 2.000000e+000
         vertex 7.000000e+000 4.000000e-001 1.040000e+000
         vertex 7.000000e+000 0.000000e+000 2.000000e+000
      endloop
   endfacet
   facet normal -1.000000e+000 0.000000e+000 0.000000e+000
      outer loop
         vertex 7.000000e+000 0.000000e+000 2.000000e+000
         vertex 7.000000e+000 4.000000e-001 1.040000e+000
         vertex 7.000000e+000 0.000000e+000 1.040000e+000
      endloop
   endfacet
   facet normal 0.000000e+000 0.000000e+000 -1.000000e+000
      outer loop
         vertex 3.020000e+000 4.000000e-001 2.000000e+000
         vertex 7.000000e+000 4.000000e-001 2.000000e+000
         vertex 3.020000e+000 0.000000e+000 2.000000e+000
      endloop
   endfacet
   facet normal 0.000000e+000 0.000000e+000 -1.000000e+000
      outer loop
         vertex 3.020000e+000 0.000000e+000 2.000000e+000
         vertex 7.000000e+000 4.000000e-001 2.000000e+000
         vertex 7.000000e+000 0.000000e+000 2.000000e+000
      endloop
   endfacet
   facet normal 0.000000e+000 1.000000e+000 0.000000e+000
      outer loop
         vertex 3.020000e+000 4.000000e-001 2.000000e+000
         vertex 3.020000e+000 4.000000e-001 2.040000e+000
         vertex 7.000000e+000 4.000000e-001 2.000000e+000
      endloop
   endfacet
   facet normal 0.000000e+000 1.000000e+000 0.000000e+000
      outer loop
         vertex 7.000000e+000 4.000000e-001 2.000000e+000
         vertex 3.020000e+000 4.000000e-001 2.040000e+000
         vertex 7.040000e+000 4.000000e-001 2.040000e+000
      endloop
   endfacet
   facet normal 0.000000e+000 1.000000e+000 0.000000e+000
      outer loop
         vertex 7.000000e+000 4.000000e-001 2.000000e+000
         vertex 7.040000e+000 4.000000e-001 2.040000e+000
         vertex 7.000000e+000 4.000000e-001 1.040000e+000
      endloop
   endfacet
   facet normal 0.000000e+000 1.000000e+000 0.000000e+000
      outer loop
         vertex 7.000000e+000 4.000000e-001 1.040000e+000
         vertex 7.040000e+000 4.000000e-001 2.040000e+000
         vertex 7.040000e+000 4.000000e-001 1.000000e+000
      endloop
   endfacet
   facet normal 0.000000e+000 1.000000e+000 0.000000e+000
      outer loop
         vertex 7.000000e+000 4.000000e-001 1.040000e+000
         vertex 7.040000e+000 4.000000e-001 1.000000e+000
         vertex 1.040000e+000 4.000000e-001 1.040000e+000
      endloop
   endfacet
   facet normal 0.000000e+000 1.000000e+000 0.000000e+000
      outer loop
         vertex 1.040000e+000 4.000000e-001 1.040000e+000
         vertex 7.040000e+000 4.000000e-001 1.000000e+000
         vertex 1.000000e+000 4.000000e-001 1.000000e+000
      endloop
   endfacet
   facet normal 0.000000e+000 1.000000e+000 0.000000e+000
      outer loop
         vertex 1.040000e+000 4.000000e-001 1.040000e+000
         vertex 1.000000e+000 4.000000e-001 1.000000e+000
         vertex 1.040000e+000 4.000000e-001 5.040000e+000
      endloop
   endfacet
   facet normal 0.000000e+000 1.000000e+000 0.000000e+000
      outer loop
         vertex 1.040000e+000 4.000000e-001 5.040000e+000
         vertex 1.000000e+000 4.000000e-001 1.000000e+000
         vertex 1.000000e+000 4.000000e-001 5.000000e+000
      endloop
   endfacet
   facet normal 0.000000e+000 1.000000e+000 0.000000e+000
      outer loop
         vertex 1.040000e+000 4.000000e-001 5.040000e+000
         vertex 1.000000e+000 4.000000e-001 5.000000e+000
         vertex 4.000000e-002 4.000000e-001 5.040000e+000
      endloop
   endfacet
   facet normal 0.000000e+000 1.000000e+000 0.000000e+000
      outer loop
         vertex 4.000000e-002 4.000000e-001 5.040000e+000
         vertex 1.000000e+000 4.000000e-001 5.000000e+000
         vertex 4.000000e-002 4.000000e-001 5.000000e+000
      endloop
   endfacet
   facet normal 0.000000e+000 -1.000000e+000 0.000000e+000
      outer loop
         vertex 3.020000e+000 0.000000e+000 2.040000e+000
         vertex 3.020000e+000 0.000000e+000 2.000000e+000
         vertex 7.040000e+000 0.000000e+000 2.040000e+000
      endloop
   endfacet
   facet normal 0.000000e+000 -1.000000e+000 0.000000e+000
      outer loop
         vertex 7.040000e+000 0.000000e+000 2.040000e+000
         vertex 3.020000e+000 0.000000e+000 2.000000e+000
         vertex 7.000000e+000 0.000000e+000 2.000000e+000
      endloop
   endfacet
   facet normal 0.000000e+000 -1.000000e+000 0.000000e+000
      outer loop
         vertex 7.040000e+000 0.000000e+000 2.040000e+000
         vertex 7.000000e+000 0.000000e+000 2.000000e+000
         vertex 7.040000e+000 0.000000e+000 1.000000e+000
      endloop
   endfacet
   facet normal 0.000000e+000 -1.000000e+000 0.000000e+000
      outer loop
         vertex 7.040000e+000 0.000000e+000 1.000000e+000
         vertex 7.000000e+000 0.000000e+000 2.000000e+000
         vertex 7.000000e+000 0.000000e+000 1.040000e+000
      endloop
   endfacet
   facet normal 0.000000e+000 -1.000000e+000 0.000000e+000
      outer loop
         vertex 7.040000e+000 0.000000e+000 1.000000e+000
         vertex 7.000000e+000 0.000000e+000 1.040000e+000
         vertex 1.000000e+000 0.000000e+000 1.000000e+000
      endloop
   endfacet
   facet normal 0.000000e+000 -1.000000e+000 0.000000e+000
      outer loop
         vertex 1.000000e+000 0.000000e+000 1.000000e+000
         vertex 7.000000e+000 0.000000e+000 1.040000e+000
         vertex 1.040000e+000 0.000000e+000 1.040000e+000
      endloop
   endfacet
   facet normal 0.000000e+000 -1.000000e+000 0.000000e+000
      outer loop
         vertex 1.000000e+000 0.000000e+000 1.000000e+000
         vertex 1.040000e+000 0.000000e+000 1.040000e+000
         vertex 1.000000e+000 0.000000e+000 5.000000e+000
      endloop
   endfacet
   facet normal 0.000000e+000 -1.000000e+000 0.000000e+000
      outer loop
         vertex 1.000000e+000 0.000000e+000 5.000000e+000
         vertex 1.040000e+000 0.000000e+000 1.040000e+000
         vertex 1.040000e+000 0.000000e+000 5.040000e+000
      endloop
   endfacet
   facet normal 0.000000e+000 -1.000000e+000 0.000000e+000
      outer loop
         vertex 1.000000e+000 0.000000e+000 5.000000e+000
         vertex 1.040000e+000 0.000000e+000 5.040000e+000
         vertex 4.000000e-002 0.000000e+000 5.000000e+000
      endloop
   endfacet
   facet normal 0.000000e+000 -1.000000e+000 0.000000e+000
      outer loop
         vertex 4.000000e-002 0.000000e+000 5.000000e+000
         vertex 1.040000e+000 0.000000e+000 5.040000e+000
         vertex 4.000000e-002 0.000000e+000 5.040000e+000
      endloop
   endfacet
   facet normal -1.000000e+000 0.000000e+000 0.000000e+000
      outer loop
         vertex 1.040000e+000 4.000000e-001 8.020000e+000
         vertex 1.040000e+000 4.000000e-001 8.000000e+000
         vertex 1.040000e+000 0.000000e+000 8.020000e+000
      endloop
   endfacet
   facet normal -1.000000e+000 0.000000e+000 0.000000e+000
      outer loop
         vertex 1.040000e+000 0.000000e+000 8.020000e+000
         vertex 1.040000e+000 4.000000e-001 8.000000e+000
         vertex 1.040000e+000 0.000000e+000 8.000000e+000
      endloop
   endfacet
   facet normal 0.000000e+000 0.000000e+000 -1.000000e+000
      outer loop
         vertex 1.000000e+000 4.000000e-001 8.020000e+000
         vertex 1.040000e+000 4.000000e-001 8.020000e+000
         vertex 1.000000e+000 0.000000e+000 8.020000e+000
      endloop
   endfacet
   facet normal 0.000000e+000 0.000000e+000 -1.000000e+000
      outer loop
         vertex 1.000000e+000 0.000000e+000 8.020000e+000
         vertex 1.040000e+000 4.000000e-001 8.020000e+000
         vertex 1.040000e+000 0.000000e+000 8.020000e+000
      endloop
   endfacet
   facet normal 1.000000e+000 0.000000e+000 0.000000e+000
      outer loop
         vertex 1.000000e+000 4.000000e-001 8.000000e+000
         vertex 1.000000e+000 4.000000e-001 8.020000e+000
         vertex 1.000000e+000 0.000000e+000 8.000000e+000
      endloop
   endfacet
   facet normal 1.000000e+000 0.000000e+000 0.000000e+000
      outer loop
         vertex 1.000000e+000 0.000000e+000 8.000000e+000
         vertex 1.000000e+000 4.000000e-001 8.020000e+000
         vertex 1.000000e+000 0.000000e+000 8.020000e+000
      endloop
   endfacet
   facet normal 0.000000e+000 0.000000e+000 -1.000000e+000
      outer loop
         vertex 4.000000e-002 4.000000e-001 8.000000e+000
         vertex 1.000000e+000 4.000000e-001 8.000000e+000
         vertex 4.000000e-002 0.000000e+000 8.000000e+000
      endloop
   endfacet
   facet normal 0.000000e+000 0.000000e+000 -1.000000e+000
      outer loop
         vertex 4.000000e-002 0.000000e+000 8.000000e+000
         vertex 1.000000e+000 4.000000e-001 8.000000e+000
         vertex 1.000000e+000 0.000000e+000 8.000000e+000
      endloop
   endfacet
   facet normal 1.000000e+000 0.000000e+000 0.000000e+000
      outer loop
         vertex 4.000000e-002 4.000000e-001 5.040000e+000
         vertex 4.000000e-002 4.000000e-001 8.000000e+000
         vertex 4.000000e-002 0.000000e+000 5.040000e+000
      endloop
   endfacet
   facet normal 1.000000e+000 0.000000e+000 0.000000e+000
      outer loop
         vertex 4.000000e-002 0.000000e+000 5.040000e+000
         vertex 4.000000e-002 4.000000e-001 8.000000e+000
         vertex 4.000000e-002 0.000000e+000 8.000000e+000
      endloop
   endfacet
   facet normal 0.000000e+000 0.000000e+000 -1.000000e+000
      outer loop
         vertex 2.000000e-002 4.000000e-001 5.040000e+000
         vertex 4.000000e-002 4.000000e-001 5.040000e+000
         vertex 2.000000e-002 0.000000e+000 5.040000e+000
      endloop
   endfacet
   facet normal 0.000000e+000 0.000000e+000 -1.000000e+000
      outer loop
         vertex 2.000000e-002 0.000000e+000 5.040000e+000
         vertex 4.000000e-002 4.000000e-001 5.040000e+000
         vertex 4.000000e-002 0.000000e+000 5.040000e+000
      endloop
   endfacet
   facet normal 1.000000e+000 0.000000e+000 0.000000e+000
      outer loop
         vertex 2.000000e-002 4.000000e-001 5.000000e+000
         vertex 2.000000e-002 4.000000e-001 5.040000e+000
         vertex 2.000000e-002 0.000000e+000 5.000000e+000
      endloop
   endfacet
   facet normal 1.000000e+000 0.000000e+000 0.000000e+000
      outer loop
         vertex 2.000000e-002 0.000000e+000 5.000000e+000
         vertex 2.000000e-002 4.000000e-001 5.040000e+000
         vertex 2.000000e-002 0.000000e+000 5.040000e+000
      endloop
   endfacet
   facet normal 0.000000e+000 0.000000e+000 1.000000e+000
      outer loop
         vertex 4.000000e-002 4.000000e-001 5.000000e+000
         vertex 2.000000e-002 4.000000e-001 5.000000e+000
         vertex 4.000000e-002 0.000000e+000 5.000000e+000
      endloop
   endfacet
   facet normal 0.000000e+000 0.000000e+000 1.000000e+000
      outer loop
         vertex 4.000000e-002 0.000000e+000 5.000000e+000
         vertex 2.000000e-002 4.000000e-001 5.000000e+000
         vertex 2.000000e-002 0.000000e+000 5.000000e+000
      endloop
   endfacet
   facet normal 1.000000e+000 0.000000e+000 0.000000e+000
      outer loop
         vertex 4.000000e-002 4.000000e-001 4.000044e-002
         vertex 4.000000e-002 4.000000e-001 5.000000e+000
         vertex 4.000000e-002 0.000000e+000 4.000044e-002
      endloop
   endfacet
   facet normal 1.000000e+000 0.000000e+000 0.000000e+000
      outer loop
         vertex 4.000000e-002 0.000000e+000 4.000044e-002
         vertex 4.000000e-002 4.000000e-001 5.000000e+000
         vertex 4.000000e-002 0.000000e+000 5.000000e+000
      endloop
   endfacet
   facet normal 0.000000e+000 0.000000e+000 1.000000e+000
      outer loop
         vertex 8.000000e+000 4.000000e-001 4.000044e-002
         vertex 4.000000e-002 4.000000e-001 4.000044e-002
         vertex 8.000000e+000 0.000000e+000 4.000044e-002
      endloop
   endfacet
   facet normal 0.000000e+000 0.000000e+000 1.000000e+000
      outer loop
         vertex 8.000000e+000 0.000000e+000 4.000044e-002
         vertex 4.000000e-002 4.000000e-001 4.000044e-002
         vertex 4.000000e-002 0.000000e+000 4.000044e-002
      endloop
   endfacet
   facet normal -1.000000e+000 0.000000e+000 0.000000e+000
      outer loop
         vertex 8.000000e+000 4.000000e-001 8.000000e+000
         vertex 8.000000e+000 4.000000e-001 4.000044e-002
         vertex 8.000000e+000 0.000000e+000 8.000000e+000
      endloop
   endfacet
   facet normal -1.000000e+000 0.000000e+000 0.000000e+000
      outer loop
         vertex 8.000000e+000 0.000000e+000 8.000000e+000
         vertex 8.000000e+000 4.000000e-001 4.000044e-002
         vertex 8.000000e+000 0.000000e+000 4.000044e-002
      endloop
   endfacet
   facet normal 0.000000e+000 0.000000e+000 -1.000000e+000
      outer loop
         vertex 3.040000e+000 4.000000e-001 8.000000e+000
         vertex 8.000000e+000 4.000000e-001 8.000000e+000
         vertex 3.040000e+000 0.000000e+000 8.000000e+000
      endloop
   endfacet
   facet normal 0.000000e+000 0.000000e+000 -1.000000e+000
      outer loop
         vertex 3.040000e+000 0.000000e+000 8.000000e+000
         vertex 8.000000e+000 4.000000e-001 8.000000e+000
         vertex 8.000000e+000 0.000000e+000 8.000000e+000
      endloop
   endfacet
   facet normal -1.000000e+000 0.000000e+000 0.000000e+000
      outer loop
         vertex 3.040000e+000 4.000000e-001 8.020000e+000
         vertex 3.040000e+000 4.000000e-001 8.000000e+000
         vertex 3.040000e+000 0.000000e+000 8.020000e+000
      endloop
   endfacet
   facet normal -1.000000e+000 0.000000e+000 0.000000e+000
      outer loop
         vertex 3.040000e+000 0.000000e+000 8.020000e+000
         vertex 3.040000e+000 4.000000e-001 8.000000e+000
         vertex 3.040000e+000 0.000000e+000 8.000000e+000
      endloop
   endfacet
   facet normal 0.000000e+000 0.000000e+000 -1.000000e+000
      outer loop
         vertex 3.000000e+000 4.000000e-001 8.020000e+000
         vertex 3.040000e+000 4.000000e-001 8.020000e+000
         vertex 3.000000e+000 0.000000e+000 8.020000e+000
      endloop
   endfacet
   facet normal 0.000000e+000 0.000000e+000 -1.000000e+000
      outer loop
         vertex 3.000000e+000 0.000000e+000 8.020000e+000
         vertex 3.040000e+000 4.000000e-001 8.020000e+000
         vertex 3.040000e+000 0.000000e+000 8.020000e+000
      endloop
   endfacet
   facet normal 1.000000e+000 0.000000e+000 0.000000e+000
      outer loop
         vertex 3.000000e+000 4.000000e-001 8.000000e+000
         vertex 3.000000e+000 4.000000e-001 8.020000e+000
         vertex 3.000000e+000 0.000000e+000 8.000000e+000
      endloop
   endfacet
   facet normal 1.000000e+000 0.000000e+000 0.000000e+000
      outer loop
         vertex 3.000000e+000 0.000000e+000 8.000000e+000
         vertex 3.000000e+000 4.000000e-001 8.020000e+000
         vertex 3.000000e+000 0.000000e+000 8.020000e+000
      endloop
   endfacet
   facet normal 0.000000e+000 0.000000e+000 1.000000e+000
      outer loop
         vertex 8.040001e+000 4.000000e-001 8.040001e+000
         vertex 0.000000e+000 4.000000e-001 8.040001e+000
         vertex 8.040001e+000 0.000000e+000 8.040001e+000
      endloop
   endfacet
   facet normal 0.000000e+000 0.000000e+000 1.000000e+000
      outer loop
         vertex 8.040001e+000 0.000000e+000 8.040001e+000
         vertex 0.000000e+000 4.000000e-001 8.040001e+000
         vertex 0.000000e+000 0.000000e+000 8.040001e+000
      endloop
   endfacet
   facet normal 1.000000e+000 0.000000e+000 0.000000e+000
      outer loop
         vertex 8.040001e+000 4.000000e-001 0.000000e+000
         vertex 8.040001e+000 4.000000e-001 8.040001e+000
         vertex 8.040001e+000 0.000000e+000 0.000000e+000
      endloop
   endfacet
   facet normal 1.000000e+000 0.000000e+000 0.000000e+000
      outer loop
         vertex 8.040001e+000 0.000000e+000 0.000000e+000
         vertex 8.040001e+000 4.000000e-001 8.040001e+000
         vertex 8.040001e+000 0.000000e+000 8.040001e+000
      endloop
   endfacet
   facet normal 0.000000e+000 0.000000e+000 -1.000000e+000
      outer loop
         vertex 0.000000e+000 4.000000e-001 0.000000e+000
         vertex 8.040001e+000 4.000000e-001 0.000000e+000
         vertex 0.000000e+000 0.000000e+000 0.000000e+000
      endloop
   endfacet
   facet normal 0.000000e+000 0.000000e+000 -1.000000e+000
      outer loop
         vertex 0.000000e+000 0.000000e+000 0.000000e+000
         vertex 8.040001e+000 4.000000e-001 0.000000e+000
         vertex 8.040001e+000 0.000000e+000 0.000000e+000
      endloop
   endfacet
   facet normal -1.000000e+000 0.000000e+000 0.000000e+000
      outer loop
         vertex 0.000000e+000 4.000000e-001 8.040001e+000
         vertex 0.000000e+000 4.000000e-001 0.000000e+000
         vertex 0.000000e+000 0.000000e+000 8.040001e+000
      endloop
   endfacet
   facet normal -1.000000e+000 0.000000e+000 0.000000e+000
      outer loop
         vertex 0.000000e+000 0.000000e+000 8.040001e+000
         vertex 0.000000e+000 4.000000e-001 0.000000e+000
         vertex 0.000000e+000 0.000000e+000 0.000000e+000
      endloop
   endfacet
   facet normal 0.000000e+000 0.000000e+000 -1.000000e+000
      outer loop
         vertex 1.040000e+000 4.000000e-001 8.000000e+000
         vertex 3.000000e+000 4.000000e-001 8.000000e+000
         vertex 1.040000e+000 0.000000e+000 8.000000e+000
      endloop
   endfacet
   facet normal 0.000000e+000 0.000000e+000 -1.000000e+000
      outer loop
         vertex 1.040000e+000 0.000000e+000 8.000000e+000
         vertex 3.000000e+000 4.000000e-001 8.000000e+000
         vertex 3.000000e+000 0.000000e+000 8.000000e+000
      endloop
   endfacet
   facet normal 0.000000e+000 1.000000e+000 0.000000e+000
      outer loop
         vertex 1.000000e+000 4.000000e-001 8.000000e+000
         vertex 4.000000e-002 4.000000e-001 8.000000e+000
         vertex 0.000000e+000 4.000000e-001 8.040001e+000
      endloop
   endfacet
   facet normal 0.000000e+000 1.000000e+000 0.000000e+000
      outer loop
         vertex 0.000000e+000 4.000000e-001 8.040001e+000
         vertex 4.000000e-002 4.000000e-001 8.000000e+000
         vertex 4.000000e-002 4.000000e-001 5.040000e+000
      endloop
   endfacet
   facet normal 0.000000e+000 1.000000e+000 0.000000e+000
      outer loop
         vertex 2.000000e-002 4.000000e-001 5.000000e+000
         vertex 4.000000e-002 4.000000e-001 5.000000e+000
         vertex 4.000000e-002 4.000000e-001 4.000044e-002
      endloop
   endfacet
   facet normal 0.000000e+000 1.000000e+000 0.000000e+000
      outer loop
         vertex 4.000000e-002 4.000000e-001 5.040000e+000
         vertex 2.000000e-002 4.000000e-001 5.040000e+000
         vertex 0.000000e+000 4.000000e-001 8.040001e+000
      endloop
   endfacet
   facet normal 0.000000e+000 1.000000e+000 0.000000e+000
      outer loop
         vertex 0.000000e+000 4.000000e-001 8.040001e+000
         vertex 2.000000e-002 4.000000e-001 5.040000e+000
         vertex 2.000000e-002 4.000000e-001 5.000000e+000
      endloop
   endfacet
   facet normal 0.000000e+000 1.000000e+000 0.000000e+000
      outer loop
         vertex 0.000000e+000 4.000000e-001 8.040001e+000
         vertex 2.000000e-002 4.000000e-001 5.000000e+000
         vertex 0.000000e+000 4.000000e-001 0.000000e+000
      endloop
   endfacet
   facet normal 0.000000e+000 1.000000e+000 0.000000e+000
      outer loop
         vertex 0.000000e+000 4.000000e-001 0.000000e+000
         vertex 2.000000e-002 4.000000e-001 5.000000e+000
         vertex 4.000000e-002 4.000000e-001 4.000044e-002
      endloop
   endfacet
   facet normal 0.000000e+000 1.000000e+000 0.000000e+000
      outer loop
         vertex 0.000000e+000 4.000000e-001 0.000000e+000
         vertex 4.000000e-002 4.000000e-001 4.000044e-002
         vertex 8.040001e+000 4.000000e-001 0.000000e+000
      endloop
   endfacet
   facet normal 0.000000e+000 1.000000e+000 0.000000e+000
      outer loop
         vertex 8.040001e+000 4.000000e-001 0.000000e+000
         vertex 4.000000e-002 4.000000e-001 4.000044e-002
         vertex 8.000000e+000 4.000000e-001 4.000044e-002
      endloop
   endfacet
   facet normal 0.000000e+000 1.000000e+000 0.000000e+000
      outer loop
         vertex 8.040001e+000 4.000000e-001 0.000000e+000
         vertex 8.000000e+000 4.000000e-001 4.000044e-002
         vertex 8.040001e+000 4.000000e-001 8.040001e+000
      endloop
   endfacet
   facet normal 0.000000e+000 1.000000e+000 0.000000e+000
      outer loop
         vertex 8.000000e+000 4.000000e-001 4.000044e-002
         vertex 8.000000e+000 4.000000e-001 8.000000e+000
         vertex 8.040001e+000 4.000000e-001 8.040001e+000
      endloop
   endfacet
   facet normal 0.000000e+000 1.000000e+000 0.000000e+000
      outer loop
         vertex 8.040001e+000 4.000000e-001 8.040001e+000
         vertex 8.000000e+000 4.000000e-001 8.000000e+000
         vertex 3.040000e+000 4.000000e-001 8.000000e+000
      endloop
   endfacet
   facet normal 0.000000e+000 1.000000e+000 0.000000e+000
      outer loop
         vertex 8.040001e+000 4.000000e-001 8.040001e+000
         vertex 3.040000e+000 4.000000e-001 8.000000e+000
         vertex 3.040000e+000 4.000000e-001 8.020000e+000
      endloop
   endfacet
   facet normal 0.000000e+000 1.000000e+000 0.000000e+000
      outer loop
         vertex 3.000000e+000 4.000000e-001 8.000000e+000
         vertex 1.040000e+000 4.000000e-001 8.000000e+000
         vertex 3.000000e+000 4.000000e-001 8.020000e+000
      endloop
   endfacet
   facet normal 0.000000e+000 1.000000e+000 0.000000e+000
      outer loop
         vertex 3.000000e+000 4.000000e-001 8.020000e+000
         vertex 1.040000e+000 4.000000e-001 8.000000e+000
         vertex 1.040000e+000 4.000000e-001 8.020000e+000
      endloop
   endfacet
   facet normal 0.000000e+000 1.000000e+000 0.000000e+000
      outer loop
         vertex 3.040000e+000 4.000000e-001 8.020000e+000
         vertex 3.000000e+000 4.000000e-001 8.020000e+000
         vertex 8.040001e+000 4.000000e-001 8.040001e+000
      endloop
   endfacet
   facet normal 0.000000e+000 1.000000e+000 0.000000e+000
      outer loop
         vertex 8.040001e+000 4.000000e-001 8.040001e+000
         vertex 3.000000e+000 4.000000e-001 8.020000e+000
         vertex 1.040000e+000 4.000000e-001 8.020000e+000
      endloop
   endfacet
   facet normal 0.000000e+000 1.000000e+000 0.000000e+000
      outer loop
         vertex 8.040001e+000 4.000000e-001 8.040001e+000
         vertex 1.040000e+000 4.000000e-001 8.020000e+000
         vertex 0.000000e+000 4.000000e-001 8.040001e+000
      endloop
   endfacet
   facet normal 0.000000e+000 1.000000e+000 0.000000e+000
      outer loop
         vertex 0.000000e+000 4.000000e-001 8.040001e+000
         vertex 1.040000e+000 4.000000e-001 8.020000e+000
         vertex 1.000000e+000 4.000000e-001 8.020000e+000
      endloop
   endfacet
   facet normal 0.000000e+000 1.000000e+000 0.000000e+000
      outer loop
         vertex 0.000000e+000 4.000000e-001 8.040001e+000
         vertex 1.000000e+000 4.000000e-001 8.020000e+000
         vertex 1.000000e+000 4.000000e-001 8.000000e+000
      endloop
   endfacet
   facet normal 0.000000e+000 -1.000000e+000 0.000000e+000
      outer loop
         vertex 3.040000e+000 0.000000e+000 8.020000e+000
         vertex 3.040000e+000 0.000000e+000 8.000000e+000
         vertex 8.000000e+000 0.000000e+000 8.000000e+000
      endloop
   endfacet
   facet normal 0.000000e+000 -1.000000e+000 0.000000e+000
      outer loop
         vertex 4.000000e-002 0.000000e+000 5.000000e+000
         vertex 2.000000e-002 0.000000e+000 5.000000e+000
         vertex 0.000000e+000 0.000000e+000 0.000000e+000
      endloop
   endfacet
   facet normal 0.000000e+000 -1.000000e+000 0.000000e+000
      outer loop
         vertex 0.000000e+000 0.000000e+000 0.000000e+000
         vertex 2.000000e-002 0.000000e+000 5.000000e+000
         vertex 0.000000e+000 0.000000e+000 8.040001e+000
      endloop
   endfacet
   facet normal 0.000000e+000 -1.000000e+000 0.000000e+000
      outer loop
         vertex 2.000000e-002 0.000000e+000 5.000000e+000
         vertex 2.000000e-002 0.000000e+000 5.040000e+000
         vertex 0.000000e+000 0.000000e+000 8.040001e+000
      endloop
   endfacet
   facet normal 0.000000e+000 -1.000000e+000 0.000000e+000
      outer loop
         vertex 0.000000e+000 0.000000e+000 8.040001e+000
         vertex 2.000000e-002 0.000000e+000 5.040000e+000
         vertex 4.000000e-002 0.000000e+000 5.040000e+000
      endloop
   endfacet
   facet normal 0.000000e+000 -1.000000e+000 0.000000e+000
      outer loop
         vertex 0.000000e+000 0.000000e+000 8.040001e+000
         vertex 4.000000e-002 0.000000e+000 5.040000e+000
         vertex 4.000000e-002 0.000000e+000 8.000000e+000
      endloop
   endfacet
   facet normal 0.000000e+000 -1.000000e+000 0.000000e+000
      outer loop
         vertex 4.000000e-002 0.000000e+000 8.000000e+000
         vertex 1.000000e+000 0.000000e+000 8.000000e+000
         vertex 0.000000e+000 0.000000e+000 8.040001e+000
      endloop
   endfacet
   facet normal 0.000000e+000 -1.000000e+000 0.000000e+000
      outer loop
         vertex 0.000000e+000 0.000000e+000 8.040001e+000
         vertex 1.000000e+000 0.000000e+000 8.000000e+000
         vertex 1.000000e+000 0.000000e+000 8.020000e+000
      endloop
   endfacet
   facet normal 0.000000e+000 -1.000000e+000 0.000000e+000
      outer loop
         vertex 0.000000e+000 0.000000e+000 8.040001e+000
         vertex 1.000000e+000 0.000000e+000 8.020000e+000
         vertex 1.040000e+000 0.000000e+000 8.020000e+000
      endloop
   endfacet
   facet normal 0.000000e+000 -1.000000e+000 0.000000e+000
      outer loop
         vertex 1.040000e+000 0.000000e+000 8.000000e+000
         vertex 3.000000e+000 0.000000e+000 8.000000e+000
         vertex 1.040000e+000 0.000000e+000 8.020000e+000
      endloop
   endfacet
   facet normal 0.000000e+000 -1.000000e+000 0.000000e+000
      outer loop
         vertex 1.040000e+000 0.000000e+000 8.020000e+000
         vertex 3.000000e+000 0.000000e+000 8.000000e+000
         vertex 3.000000e+000 0.000000e+000 8.020000e+000
      endloop
   endfacet
   facet normal 0.000000e+000 -1.000000e+000 0.000000e+000
      outer loop
         vertex 1.040000e+000 0.000000e+000 8.020000e+000
         vertex 3.000000e+000 0.000000e+000 8.020000e+000
         vertex 0.000000e+000 0.000000e+000 8.040001e+000
      endloop
   endfacet
   facet normal 0.000000e+000 -1.000000e+000 0.000000e+000
      outer loop
         vertex 0.000000e+000 0.000000e+000 8.040001e+000
         vertex 3.000000e+000 0.000000e+000 8.020000e+000
         vertex 3.040000e+000 0.000000e+000 8.020000e+000
      endloop
   endfacet
   facet normal 0.000000e+000 -1.000000e+000 0.000000e+000
      outer loop
         vertex 0.000000e+000 0.000000e+000 8.040001e+000
         vertex 3.040000e+000 0.000000e+000 8.020000e+000
         vertex 8.040001e+000 0.000000e+000 8.040001e+000
      endloop
   endfacet
   facet normal 0.000000e+000 -1.000000e+000 0.000000e+000
      outer loop
         vertex 8.040001e+000 0.000000e+000 8.040001e+000
         vertex 3.040000e+000 0.000000e+000 8.020000e+000
         vertex 8.000000e+000 0.000000e+000 8.000000e+000
      endloop
   endfacet
   facet normal 0.000000e+000 -1.000000e+000 0.000000e+000
      outer loop
         vertex 8.040001e+000 0.000000e+000 8.040001e+000
         vertex 8.000000e+000 0.000000e+000 8.000000e+000
         vertex 8.040001e+000 0.000000e+000 0.000000e+000
      endloop
   endfacet
   facet normal 0.000000e+000 -1.000000e+000 0.000000e+000
      outer loop
         vertex 8.040001e+000 0.000000e+000 0.000000e+000
         vertex 8.000000e+000 0.000000e+000 8.000000e+000
         vertex 8.000000e+000 0.000000e+000 4.000044e-002
      endloop
   endfacet
   facet normal 0.000000e+000 -1.000000e+000 0.000000e+000
      outer loop
         vertex 8.040001e+000 0.000000e+000 0.000000e+000
         vertex 8.000000e+000 0.000000e+000 4.000044e-002
         vertex 0.000000e+000 0.000000e+000 0.000000e+000
      endloop
   endfacet
   facet normal 0.000000e+000 -1.000000e+000 0.000000e+000
      outer loop
         vertex 0.000000e+000 0.000000e+000 0.000000e+000
         vertex 8.000000e+000 0.000000e+000 4.000044e-002
         vertex 4.000000e-002 0.000000e+000 4.000044e-002
      endloop
   endfacet
   facet normal 0.000000e+000 -1.000000e+000 0.000000e+000
      outer loop
         vertex 0.000000e+000 0.000000e+000 0.000000e+000
         vertex 4.000000e-002 0.000000e+000 4.000044e-002
         vertex 4.000000e-002 0.000000e+000 5.000000e+000
      endloop
   endfacet
   facet normal -1.000000e+000 0.000000e+000 0.000000e+000
      outer loop
         vertex 3.020000e+000 4.000000e-001 7.040000e+000
         vertex 3.020000e+000 4.000000e-001 7.000000e+000
         vertex 3.020000e+000 0.000000e+000 7.040000e+000
      endloop
   endfacet
   facet normal -1.000000e+000 0.000000e+000 0.000000e+000
      outer loop
         vertex 3.020000e+000 0.000000e+000 7.040000e+000
         vertex 3.020000e+000 4.000000e-001 7.000000e+000
         vertex 3.020000e+000 0.000000e+000 7.000000e+000
      endloop
   endfacet
   facet normal 0.000000e+000 0.000000e+000 -1.000000e+000
      outer loop
         vertex 3.000000e+000 4.000000e-001 7.040000e+000
         vertex 3.020000e+000 4.000000e-001 7.040000e+000
         vertex 3.000000e+000 0.000000e+000 7.040000e+000
      endloop
   endfacet
   facet normal 0.000000e+000 0.000000e+000 -1.000000e+000
      outer loop
         vertex 3.000000e+000 0.000000e+000 7.040000e+000
         vertex 3.020000e+000 4.000000e-001 7.040000e+000
         vertex 3.020000e+000 0.000000e+000 7.040000e+000
      endloop
   endfacet
   facet normal -1.000000e+000 0.000000e+000 0.000000e+000
      outer loop
         vertex 3.000000e+000 4.000000e-001 8.000000e+000
         vertex 3.000000e+000 4.000000e-001 7.040000e+000
         vertex 3.000000e+000 0.000000e+000 8.000000e+000
      endloop
   endfacet
   facet normal -1.000000e+000 0.000000e+000 0.000000e+000
      outer loop
         vertex 3.000000e+000 0.000000e+000 8.000000e+000
         vertex 3.000000e+000 4.000000e-001 7.040000e+000
         vertex 3.000000e+000 0.000000e+000 7.040000e+000
      endloop
   endfacet
   facet normal 0.000000e+000 0.000000e+000 1.000000e+000
      outer loop
         vertex 3.040000e+000 4.000000e-001 8.000000e+000
         vertex 3.000000e+000 4.000000e-001 8.000000e+000
         vertex 3.040000e+000 0.000000e+000 8.000000e+000
      endloop
   endfacet
   facet normal 0.000000e+000 0.000000e+000 1.000000e+000
      outer loop
         vertex 3.040000e+000 0.000000e+000 8.000000e+000
         vertex 3.000000e+000 4.000000e-001 8.000000e+000
         vertex 3.000000e+000 0.000000e+000 8.000000e+000
      endloop
   endfacet
   facet normal 1.000000e+000 0.000000e+000 0.000000e+000
      outer loop
         vertex 3.040000e+000 4.000000e-001 6.040000e+000
         vertex 3.040000e+000 4.000000e-001 8.000000e+000
         vertex 3.040000e+000 0.000000e+000 6.040000e+000
      endloop
   endfacet
   facet normal 1.000000e+000 0.000000e+000 0.000000e+000
      outer loop
         vertex 3.040000e+000 0.000000e+000 6.040000e+000
         vertex 3.040000e+000 4.000000e-001 8.000000e+000
         vertex 3.040000e+000 0.000000e+000 8.000000e+000
      endloop
   endfacet
   facet normal 0.000000e+000 0.000000e+000 1.000000e+000
      outer loop
         vertex 6.040000e+000 4.000000e-001 6.040000e+000
         vertex 3.040000e+000 4.000000e-001 6.040000e+000
         vertex 6.040000e+000 0.000000e+000 6.040000e+000
      endloop
   endfacet
   facet normal 0.000000e+000 0.000000e+000 1.000000e+000
      outer loop
         vertex 6.040000e+000 0.000000e+000 6.040000e+000
         vertex 3.040000e+000 4.000000e-001 6.040000e+000
         vertex 3.040000e+000 0.000000e+000 6.040000e+000
      endloop
   endfacet
   facet normal 1.000000e+000 0.000000e+000 0.000000e+000
      outer loop
         vertex 6.040000e+000 4.000000e-001 3.040000e+000
         vertex 6.040000e+000 4.000000e-001 6.040000e+000
         vertex 6.040000e+000 0.000000e+000 3.040000e+000
      endloop
   endfacet
   facet normal 1.000000e+000 0.000000e+000 0.000000e+000
      outer loop
         vertex 6.040000e+000 0.000000e+000 3.040000e+000
         vertex 6.040000e+000 4.000000e-001 6.040000e+000
         vertex 6.040000e+000 0.000000e+000 6.040000e+000
      endloop
   endfacet
   facet normal 0.000000e+000 0.000000e+000 1.000000e+000
      outer loop
         vertex 7.000000e+000 4.000000e-001 3.040000e+000
         vertex 6.040000e+000 4.000000e-001 3.040000e+000
         vertex 7.000000e+000 0.000000e+000 3.040000e+000
      endloop
   endfacet
   facet normal 0.000000e+000 0.000000e+000 1.000000e+000
      outer loop
         vertex 7.000000e+000 0.000000e+000 3.040000e+000
         vertex 6.040000e+000 4.000000e-001 3.040000e+000
         vertex 6.040000e+000 0.000000e+000 3.040000e+000
      endloop
   endfacet
   facet normal -1.000000e+000 0.000000e+000 0.000000e+000
      outer loop
         vertex 7.000000e+000 4.000000e-001 7.000000e+000
         vertex 7.000000e+000 4.000000e-001 3.040000e+000
         vertex 7.000000e+000 0.000000e+000 7.000000e+000
      endloop
   endfacet
   facet normal -1.000000e+000 0.000000e+000 0.000000e+000
      outer loop
         vertex 7.000000e+000 0.000000e+000 7.000000e+000
         vertex 7.000000e+000 4.000000e-001 3.040000e+000
         vertex 7.000000e+000 0.000000e+000 3.040000e+000
      endloop
   endfacet
   facet normal 0.000000e+000 0.000000e+000 -1.000000e+000
      outer loop
         vertex 5.020000e+000 4.000000e-001 7.000000e+000
         vertex 7.000000e+000 4.000000e-001 7.000000e+000
         vertex 5.020000e+000 0.000000e+000 7.000000e+000
      endloop
   endfacet
   facet normal 0.000000e+000 0.000000e+000 -1.000000e+000
      outer loop
         vertex 5.020000e+000 0.000000e+000 7.000000e+000
         vertex 7.000000e+000 4.000000e-001 7.000000e+000
         vertex 7.000000e+000 0.000000e+000 7.000000e+000
      endloop
   endfacet
   facet normal -1.000000e+000 0.000000e+000 0.000000e+000
      outer loop
         vertex 5.020000e+000 4.000000e-001 7.040000e+000
         vertex 5.020000e+000 4.000000e-001 7.000000e+000
         vertex 5.020000e+000 0.000000e+000 7.040000e+000
      endloop
   endfacet
   facet normal -1.000000e+000 0.000000e+000 0.000000e+000
      outer loop
         vertex 5.020000e+000 0.000000e+000 7.040000e+000
         vertex 5.020000e+000 4.000000e-001 7.000000e+000
         vertex 5.020000e+000 0.000000e+000 7.000000e+000
      endloop
   endfacet
   facet normal 0.000000e+000 0.000000e+000 1.000000e+000
      outer loop
         vertex 7.040000e+000 4.000000e-001 7.040000e+000
         vertex 5.020000e+000 4.000000e-001 7.040000e+000
         vertex 7.040000e+000 0.000000e+000 7.040000e+000
      endloop
   endfacet
   facet normal 0.000000e+000 0.000000e+000 1.000000e+000
      outer loop
         vertex 7.040000e+000 0.000000e+000 7.040000e+000
         vertex 5.020000e+000 4.000000e-001 7.040000e+000
         vertex 5.020000e+000 0.000000e+000 7.040000e+000
      endloop
   endfacet
   facet normal 1.000000e+000 0.000000e+000 0.000000e+000
      outer loop
         vertex 7.040000e+000 4.000000e-001 3.000000e+000
         vertex 7.040000e+000 4.000000e-001 7.040000e+000
         vertex 7.040000e+000 0.000000e+000 3.000000e+000
      endloop
   endfacet
   facet normal 1.000000e+000 0.000000e+000 0.000000e+000
      outer loop
         vertex 7.040000e+000 0.000000e+000 3.000000e+000
         vertex 7.040000e+000 4.000000e-001 7.040000e+000
         vertex 7.040000e+000 0.000000e+000 7.040000e+000
      endloop
   endfacet
   facet normal 0.000000e+000 0.000000e+000 -1.000000e+000
      outer loop
         vertex 6.000000e+000 4.000000e-001 3.000000e+000
         vertex 7.040000e+000 4.000000e-001 3.000000e+000
         vertex 6.000000e+000 0.000000e+000 3.000000e+000
      endloop
   endfacet
   facet normal 0.000000e+000 0.000000e+000 -1.000000e+000
      outer loop
         vertex 6.000000e+000 0.000000e+000 3.000000e+000
         vertex 7.040000e+000 4.000000e-001 3.000000e+000
         vertex 7.040000e+000 0.000000e+000 3.000000e+000
      endloop
   endfacet
   facet normal -1.000000e+000 0.000000e+000 0.000000e+000
      outer loop
         vertex 6.000000e+000 4.000000e-001 6.000000e+000
         vertex 6.000000e+000 4.000000e-001 3.000000e+000
         vertex 6.000000e+000 0.000000e+000 6.000000e+000
      endloop
   endfacet
   facet normal -1.000000e+000 0.000000e+000 0.000000e+000
      outer loop
         vertex 6.000000e+000 0.000000e+000 6.000000e+000
         vertex 6.000000e+000 4.000000e-001 3.000000e+000
         vertex 6.000000e+000 0.000000e+000 3.000000e+000
      endloop
   endfacet
   facet normal 0.000000e+000 0.000000e+000 -1.000000e+000
      outer loop
         vertex 3.000000e+000 4.000000e-001 6.000000e+000
         vertex 6.000000e+000 4.000000e-001 6.000000e+000
         vertex 3.000000e+000 0.000000e+000 6.000000e+000
      endloop
   endfacet
   facet normal 0.000000e+000 0.000000e+000 -1.000000e+000
      outer loop
         vertex 3.000000e+000 0.000000e+000 6.000000e+000
         vertex 6.000000e+000 4.000000e-001 6.000000e+000
         vertex 6.000000e+000 0.000000e+000 6.000000e+000
      endloop
   endfacet
   facet normal -1.000000e+000 0.000000e+000 0.000000e+000
      outer loop
         vertex 3.000000e+000 4.000000e-001 7.000000e+000
         vertex 3.000000e+000 4.000000e-001 6.000000e+000
         vertex 3.000000e+000 0.000000e+000 7.000000e+000
      endloop
   endfacet
   facet normal -1.000000e+000 0.000000e+000 0.000000e+000
      outer loop
         vertex 3.000000e+000 0.000000e+000 7.000000e+000
         vertex 3.000000e+000 4.000000e-001 6.000000e+000
         vertex 3.000000e+000 0.000000e+000 6.000000e+000
      endloop
   endfacet
   facet normal 0.000000e+000 0.000000e+000 1.000000e+000
      outer loop
         vertex 3.020000e+000 4.000000e-001 7.000000e+000
         vertex 3.000000e+000 4.000000e-001 7.000000e+000
         vertex 3.020000e+000 0.000000e+000 7.000000e+000
      endloop
   endfacet
   facet normal 0.000000e+000 0.000000e+000 1.000000e+000
      outer loop
         vertex 3.020000e+000 0.000000e+000 7.000000e+000
         vertex 3.000000e+000 4.000000e-001 7.000000e+000
         vertex 3.000000e+000 0.000000e+000 7.000000e+000
      endloop
   endfacet
   facet normal 0.000000e+000 1.000000e+000 0.000000e+000
      outer loop
         vertex 3.000000e+000 4.000000e-001 7.040000e+000
         vertex 3.000000e+000 4.000000e-001 8.000000e+000
         vertex 3.020000e+000 4.000000e-001 7.040000e+000
      endloop
   endfacet
   facet normal 0.000000e+000 1.000000e+000 0.000000e+000
      outer loop
         vertex 3.020000e+000 4.000000e-001 7.040000e+000
         vertex 3.000000e+000 4.000000e-001 8.000000e+000
         vertex 3.040000e+000 4.000000e-001 8.000000e+000
      endloop
   endfacet
   facet normal 0.000000e+000 1.000000e+000 0.000000e+000
      outer loop
         vertex 3.020000e+000 4.000000e-001 7.040000e+000
         vertex 3.040000e+000 4.000000e-001 8.000000e+000
         vertex 3.020000e+000 4.000000e-001 7.000000e+000
      endloop
   endfacet
   facet normal 0.000000e+000 1.000000e+000 0.000000e+000
      outer loop
         vertex 3.020000e+000 4.000000e-001 7.000000e+000
         vertex 3.040000e+000 4.000000e-001 8.000000e+000
         vertex 3.040000e+000 4.000000e-001 6.040000e+000
      endloop
   endfacet
   facet normal 0.000000e+000 1.000000e+000 0.000000e+000
      outer loop
         vertex 3.020000e+000 4.000000e-001 7.000000e+000
         vertex 3.040000e+000 4.000000e-001 6.040000e+000
         vertex 3.000000e+000 4.000000e-001 7.000000e+000
      endloop
   endfacet
   facet normal 0.000000e+000 1.000000e+000 0.000000e+000
      outer loop
         vertex 5.020000e+000 4.000000e-001 7.000000e+000
         vertex 5.020000e+000 4.000000e-001 7.040000e+000
         vertex 7.000000e+000 4.000000e-001 7.000000e+000
      endloop
   endfacet
   facet normal 0.000000e+000 1.000000e+000 0.000000e+000
      outer loop
         vertex 7.000000e+000 4.000000e-001 7.000000e+000
         vertex 5.020000e+000 4.000000e-001 7.040000e+000
         vertex 7.040000e+000 4.000000e-001 7.040000e+000
      endloop
   endfacet
   facet normal 0.000000e+000 1.000000e+000 0.000000e+000
      outer loop
         vertex 7.000000e+000 4.000000e-001 7.000000e+000
         vertex 7.040000e+000 4.000000e-001 7.040000e+000
         vertex 7.000000e+000 4.000000e-001 3.040000e+000
      endloop
   endfacet
   facet normal 0.000000e+000 1.000000e+000 0.000000e+000
      outer loop
         vertex 7.000000e+000 4.000000e-001 3.040000e+000
         vertex 7.040000e+000 4.000000e-001 7.040000e+000
         vertex 7.040000e+000 4.000000e-001 3.000000e+000
      endloop
   endfacet
   facet normal 0.000000e+000 1.000000e+000 0.000000e+000
      outer loop
         vertex 7.000000e+000 4.000000e-001 3.040000e+000
         vertex 7.040000e+000 4.000000e-001 3.000000e+000
         vertex 6.040000e+000 4.000000e-001 3.040000e+000
      endloop
   endfacet
   facet normal 0.000000e+000 1.000000e+000 0.000000e+000
      outer loop
         vertex 6.040000e+000 4.000000e-001 3.040000e+000
         vertex 7.040000e+000 4.000000e-001 3.000000e+000
         vertex 6.000000e+000 4.000000e-001 3.000000e+000
      endloop
   endfacet
   facet normal 0.000000e+000 1.000000e+000 0.000000e+000
      outer loop
         vertex 6.040000e+000 4.000000e-001 3.040000e+000
         vertex 6.000000e+000 4.000000e-001 3.000000e+000
         vertex 6.040000e+000 4.000000e-001 6.040000e+000
      endloop
   endfacet
   facet normal 0.000000e+000 1.000000e+000 0.000000e+000
      outer loop
         vertex 6.040000e+000 4.000000e-001 6.040000e+000
         vertex 6.000000e+000 4.000000e-001 3.000000e+000
         vertex 6.000000e+000 4.000000e-001 6.000000e+000
      endloop
   endfacet
   facet normal 0.000000e+000 1.000000e+000 0.000000e+000
      outer loop
         vertex 6.040000e+000 4.000000e-001 6.040000e+000
         vertex 6.000000e+000 4.000000e-001 6.000000e+000
         vertex 3.040000e+000 4.000000e-001 6.040000e+000
      endloop
   endfacet
   facet normal 0.000000e+000 1.000000e+000 0.000000e+000
      outer loop
         vertex 3.040000e+000 4.000000e-001 6.040000e+000
         vertex 6.000000e+000 4.000000e-001 6.000000e+000
         vertex 3.000000e+000 4.000000e-001 6.000000e+000
      endloop
   endfacet
   facet normal 0.000000e+000 1.000000e+000 0.000000e+000
      outer loop
         vertex 3.040000e+000 4.000000e-001 6.040000e+000
         vertex 3.000000e+000 4.000000e-001 6.000000e+000
         vertex 3.000000e+000 4.000000e-001 7.000000e+000
      endloop
   endfacet
   facet normal 0.000000e+000 -1.000000e+000 0.000000e+000
      outer loop
         vertex 3.020000e+000 0.000000e+000 7.000000e+000
         vertex 3.040000e+000 0.000000e+000 6.040000e+000
         vertex 3.020000e+000 0.000000e+000 7.040000e+000
      endloop
   endfacet
   facet normal 0.000000e+000 -1.000000e+000 0.000000e+000
      outer loop
         vertex 3.020000e+000 0.000000e+000 7.040000e+000
         vertex 3.040000e+000 0.000000e+000 6.040000e+000
         vertex 3.040000e+000 0.000000e+000 8.000000e+000
      endloop
   endfacet
   facet normal 0.000000e+000 -1.000000e+000 0.000000e+000
      outer loop
         vertex 3.020000e+000 0.000000e+000 7.040000e+000
         vertex 3.040000e+000 0.000000e+000 8.000000e+000
         vertex 3.000000e+000 0.000000e+000 7.040000e+000
      endloop
   endfacet
   facet normal 0.000000e+000 -1.000000e+000 0.000000e+000
      outer loop
         vertex 3.000000e+000 0.000000e+000 7.040000e+000
         vertex 3.040000e+000 0.000000e+000 8.000000e+000
         vertex 3.000000e+000 0.000000e+000 8.000000e+000
      endloop
   endfacet
   facet normal 0.000000e+000 -1.000000e+000 0.000000e+000
      outer loop
         vertex 5.020000e+000 0.000000e+000 7.040000e+000
         vertex 5.020000e+000 0.000000e+000 7.000000e+000
         vertex 7.040000e+000 0.000000e+000 7.040000e+000
      endloop
   endfacet
   facet normal 0.000000e+000 -1.000000e+000 0.000000e+000
      outer loop
         vertex 7.040000e+000 0.000000e+000 7.040000e+000
         vertex 5.020000e+000 0.000000e+000 7.000000e+000
         vertex 7.000000e+000 0.000000e+000 7.000000e+000
      endloop
   endfacet
   facet normal 0.000000e+000 -1.000000e+000 0.000000e+000
      outer loop
         vertex 7.040000e+000 0.000000e+000 7.040000e+000
         vertex 7.000000e+000 0.000000e+000 7.000000e+000
         vertex 7.040000e+000 0.000000e+000 3.000000e+000
      endloop
   endfacet
   facet normal 0.000000e+000 -1.000000e+000 0.000000e+000
      outer loop
         vertex 7.040000e+000 0.000000e+000 3.000000e+000
         vertex 7.000000e+000 0.000000e+000 7.000000e+000
         vertex 7.000000e+000 0.000000e+000 3.040000e+000
      endloop
   endfacet
   facet normal 0.000000e+000 -1.000000e+000 0.000000e+000
      outer loop
         vertex 7.040000e+000 0.000000e+000 3.000000e+000
         vertex 7.000000e+000 0.000000e+000 3.040000e+000
         vertex 6.000000e+000 0.000000e+000 3.000000e+000
      endloop
   endfacet
   facet normal 0.000000e+000 -1.000000e+000 0.000000e+000
      outer loop
         vertex 6.000000e+000 0.000000e+000 3.000000e+000
         vertex 7.000000e+000 0.000000e+000 3.040000e+000
         vertex 6.040000e+000 0.000000e+000 3.040000e+000
      endloop
   endfacet
   facet normal 0.000000e+000 -1.000000e+000 0.000000e+000
      outer loop
         vertex 6.000000e+000 0.000000e+000 3.000000e+000
         vertex 6.040000e+000 0.000000e+000 3.040000e+000
         vertex 6.000000e+000 0.000000e+000 6.000000e+000
      endloop
   endfacet
   facet normal 0.000000e+000 -1.000000e+000 0.000000e+000
      outer loop
         vertex 6.000000e+000 0.000000e+000 6.000000e+000
         vertex 6.040000e+000 0.000000e+000 3.040000e+000
         vertex 6.040000e+000 0.000000e+000 6.040000e+000
      endloop
   endfacet
   facet normal 0.000000e+000 -1.000000e+000 0.000000e+000
      outer loop
         vertex 6.000000e+000 0.000000e+000 6.000000e+000
         vertex 6.040000e+000 0.000000e+000 6.040000e+000
         vertex 3.000000e+000 0.000000e+000 6.000000e+000
      endloop
   endfacet
   facet normal 0.000000e+000 -1.000000e+000 0.000000e+000
      outer loop
         vertex 3.000000e+000 0.000000e+000 6.000000e+000
         vertex 6.040000e+000 0.000000e+000 6.040000e+000
         vertex 3.040000e+000 0.000000e+000 6.040000e+000
      endloop
   endfacet
   facet normal 0.000000e+000 -1.000000e+000 0.000000e+000
      outer loop
         vertex 3.000000e+000 0.000000e+000 6.000000e+000
         vertex 3.040000e+000 0.000000e+000 6.040000e+000
         vertex 3.000000e+000 0.000000e+000 7.000000e+000
      endloop
   endfacet
   facet normal 0.000000e+000 -1.000000e+000 0.000000e+000
      outer loop
         vertex 3.000000e+000 0.000000e+000 7.000000e+000
         vertex 3.040000e+000 0.000000e+000 6.040000e+000
         vertex 3.020000e+000 0.000000e+000 7.000000e+000
      endloop
   endfacet
   facet normal 1.000000e+000 0.000000e+000 0.000000e+000
      outer loop
         vertex 1.040000e+000 4.000000e-001 7.020000e+000
         vertex 1.040000e+000 4.000000e-001 8.000000e+000
         vertex 1.040000e+000 0.000000e+000 7.020000e+000
      endloop
   endfacet
   facet normal 1.000000e+000 0.000000e+000 0.000000e+000
      outer loop
         vertex 1.040000e+000 0.000000e+000 7.020000e+000
         vertex 1.040000e+000 4.000000e-001 8.000000e+000
         vertex 1.040000e+000 0.000000e+000 8.000000e+000
      endloop
   endfacet
   facet normal 0.000000e+000 0.000000e+000 -1.000000e+000
      outer loop
         vertex 1.000000e+000 4.000000e-001 7.020000e+000
         vertex 1.040000e+000 4.000000e-001 7.020000e+000
         vertex 1.000000e+000 0.000000e+000 7.020000e+000
      endloop
   endfacet
   facet normal 0.000000e+000 0.000000e+000 -1.000000e+000
      outer loop
         vertex 1.000000e+000 0.000000e+000 7.020000e+000
         vertex 1.040000e+000 4.000000e-001 7.020000e+000
         vertex 1.040000e+000 0.000000e+000 7.020000e+000
      endloop
   endfacet
   facet normal -1.000000e+000 0.000000e+000 0.000000e+000
      outer loop
         vertex 1.000000e+000 4.000000e-001 8.000000e+000
         vertex 1.000000e+000 4.000000e-001 7.020000e+000
         vertex 1.000000e+000 0.000000e+000 8.000000e+000
      endloop
   endfacet
   facet normal -1.000000e+000 0.000000e+000 0.000000e+000
      outer loop
         vertex 1.000000e+000 0.000000e+000 8.000000e+000
         vertex 1.000000e+000 4.000000e-001 7.020000e+000
         vertex 1.000000e+000 0.000000e+000 7.020000e+000
      endloop
   endfacet
   facet normal 0.000000e+000 0.000000e+000 1.000000e+000
      outer loop
         vertex 1.040000e+000 4.000000e-001 8.000000e+000
         vertex 1.000000e+000 4.000000e-001 8.000000e+000
         vertex 1.040000e+000 0.000000e+000 8.000000e+000
      endloop
   endfacet
   facet normal 0.000000e+000 0.000000e+000 1.000000e+000
      outer loop
         vertex 1.040000e+000 0.000000e+000 8.000000e+000
         vertex 1.000000e+000 4.000000e-001 8.000000e+000
         vertex 1.000000e+000 0.000000e+000 8.000000e+000
      endloop
   endfacet
   facet normal 0.000000e+000 1.000000e+000 0.000000e+000
      outer loop
         vertex 1.000000e+000 4.000000e-001 7.020000e+000
         vertex 1.000000e+000 4.000000e-001 8.000000e+000
         vertex 1.040000e+000 4.000000e-001 7.020000e+000
      endloop
   endfacet
   facet normal 0.000000e+000 1.000000e+000 0.000000e+000
      outer loop
         vertex 1.040000e+000 4.000000e-001 7.020000e+000
         vertex 1.000000e+000 4.000000e-001 8.000000e+000
         vertex 1.040000e+000 4.000000e-001 8.000000e+000
      endloop
   endfacet
   facet normal 0.000000e+000 -1.000000e+000 0.000000e+000
      outer loop
         vertex 1.000000e+000 0.000000e+000 8.000000e+000
         vertex 1.000000e+000 0.000000e+000 7.020000e+000
         vertex 1.040000e+000 0.000000e+000 8.000000e+000
      endloop
   endfacet
   facet normal 0.000000e+000 -1.000000e+000 0.000000e+000
      outer loop
         vertex 1.040000e+000 0.000000e+000 8.000000e+000
         vertex 1.000000e+000 0.000000e+000 7.020000e+000
         vertex 1.040000e+000 0.000000e+000 7.020000e+000
      endloop
   endfacet
   facet normal 0.000000e+000 0.000000e+000 -1.000000e+000
      outer loop
         vertex 2.000000e+000 4.000000e-001 6.020000e+000
         vertex 2.040000e+000 4.000000e-001 6.020000e+000
         vertex 2.000000e+000 0.000000e+000 6.020000e+000
      endloop
   endfacet
   facet normal 0.000000e+000 0.000000e+000 -1.000000e+000
      outer loop
         vertex 2.000000e+000 0.000000e+000 6.020000e+000
         vertex 2.040000e+000 4.000000e-001 6.020000e+000
         vertex 2.040000e+000 0.000000e+000 6.020000e+000
      endloop
   endfacet
   facet normal -1.000000e+000 0.000000e+000 0.000000e+000
      outer loop
         vertex 2.000000e+000 4.000000e-001 7.040000e+000
         vertex 2.000000e+000 4.000000e-001 6.020000e+000
         vertex 2.000000e+000 0.000000e+000 7.040000e+000
      endloop
   endfacet
   facet normal -1.000000e+000 0.000000e+000 0.000000e+000
      outer loop
         vertex 2.000000e+000 0.000000e+000 7.040000e+000
         vertex 2.000000e+000 4.000000e-001 6.020000e+000
         vertex 2.000000e+000 0.000000e+000 6.020000e+000
      endloop
   endfacet
   facet normal 0.000000e+000 0.000000e+000 1.000000e+000
      outer loop
         vertex 3.000000e+000 4.000000e-001 7.040000e+000
         vertex 2.000000e+000 4.000000e-001 7.040000e+000
         vertex 3.000000e+000 0.000000e+000 7.040000e+000
      endloop
   endfacet
   facet normal 0.000000e+000 0.000000e+000 1.000000e+000
      outer loop
         vertex 3.000000e+000 0.000000e+000 7.040000e+000
         vertex 2.000000e+000 4.000000e-001 7.040000e+000
         vertex 2.000000e+000 0.000000e+000 7.040000e+000
      endloop
   endfacet
   facet normal 1.000000e+000 0.000000e+000 0.000000e+000
      outer loop
         vertex 3.000000e+000 4.000000e-001 7.000000e+000
         vertex 3.000000e+000 4.000000e-001 7.040000e+000
         vertex 3.000000e+000 0.000000e+000 7.000000e+000
      endloop
   endfacet
   facet normal 1.000000e+000 0.000000e+000 0.000000e+000
      outer loop
         vertex 3.000000e+000 0.000000e+000 7.000000e+000
         vertex 3.000000e+000 4.000000e-001 7.040000e+000
         vertex 3.000000e+000 0.000000e+000 7.040000e+000
      endloop
   endfacet
   facet normal 0.000000e+000 0.000000e+000 -1.000000e+000
      outer loop
         vertex 2.040000e+000 4.000000e-001 7.000000e+000
         vertex 3.000000e+000 4.000000e-001 7.000000e+000
         vertex 2.040000e+000 0.000000e+000 7.000000e+000
      endloop
   endfacet
   facet normal 0.000000e+000 0.000000e+000 -1.000000e+000
      outer loop
         vertex 2.040000e+000 0.000000e+000 7.000000e+000
         vertex 3.000000e+000 4.000000e-001 7.000000e+000
         vertex 3.000000e+000 0.000000e+000 7.000000e+000
      endloop
   endfacet
   facet normal 1.000000e+000 0.000000e+000 0.000000e+000
      outer loop
         vertex 2.040000e+000 4.000000e-001 6.020000e+000
         vertex 2.040000e+000 4.000000e-001 7.000000e+000
         vertex 2.040000e+000 0.000000e+000 6.020000e+000
      endloop
   endfacet
   facet normal 1.000000e+000 0.000000e+000 0.000000e+000
      outer loop
         vertex 2.040000e+000 0.000000e+000 6.020000e+000
         vertex 2.040000e+000 4.000000e-001 7.000000e+000
         vertex 2.040000e+000 0.000000e+000 7.000000e+000
      endloop
   endfacet
   facet normal 0.000000e+000 1.000000e+000 0.000000e+000
      outer loop
         vertex 2.040000e+000 4.000000e-001 6.020000e+000
         vertex 2.000000e+000 4.000000e-001 6.020000e+000
         vertex 2.040000e+000 4.000000e-001 7.000000e+000
      endloop
   endfacet
   facet normal 0.000000e+000 1.000000e+000 0.000000e+000
      outer loop
         vertex 2.040000e+000 4.000000e-001 7.000000e+000
         vertex 2.000000e+000 4.000000e-001 6.020000e+000
         vertex 2.000000e+000 4.000000e-001 7.040000e+000
      endloop
   endfacet
   facet normal 0.000000e+000 1.000000e+000 0.000000e+000
      outer loop
         vertex 2.040000e+000 4.000000e-001 7.000000e+000
         vertex 2.000000e+000 4.000000e-001 7.040000e+000
         vertex 3.000000e+000 4.000000e-001 7.000000e+000
      endloop
   endfacet
   facet normal 0.000000e+000 1.000000e+000 0.000000e+000
      outer loop
         vertex 3.000000e+000 4.000000e-001 7.000000e+000
         vertex 2.000000e+000 4.000000e-001 7.040000e+000
         vertex 3.000000e+000 4.000000e-001 7.040000e+000
      endloop
   endfacet
   facet normal 0.000000e+000 -1.000000e+000 0.000000e+000
      outer loop
         vertex 3.000000e+000 0.000000e+000 7.000000e+000
         vertex 3.000000e+000 0.000000e+000 7.040000e+000
         vertex 2.040000e+000 0.000000e+000 7.000000e+000
      endloop
   endfacet
   facet normal 0.000000e+000 -1.000000e+000 0.000000e+000
      outer loop
         vertex 2.040000e+000 0.000000e+000 7.000000e+000
         vertex 3.000000e+000 0.000000e+000 7.040000e+000
         vertex 2.000000e+000 0.000000e+000 7.040000e+000
      endloop
   endfacet
   facet normal 0.000000e+000 -1.000000e+000 0.000000e+000
      outer loop
         vertex 2.040000e+000 0.000000e+000 7.000000e+000
         vertex 2.000000e+000 0.000000e+000 7.040000e+000
         vertex 2.040000e+000 0.000000e+000 6.020000e+000
      endloop
   endfacet
   facet normal 0.000000e+000 -1.000000e+000 0.000000e+000
      outer loop
         vertex 2.040000e+000 0.000000e+000 6.020000e+000
         vertex 2.000000e+000 0.000000e+000 7.040000e+000
         vertex 2.000000e+000 0.000000e+000 6.020000e+000
      endloop
   endfacet
   facet normal 1.000000e+000 0.000000e+000 0.000000e+000
      outer loop
         vertex 3.000000e+000 4.000000e-001 3.020000e+000
         vertex 3.000000e+000 4.000000e-001 3.040000e+000
         vertex 3.000000e+000 0.000000e+000 3.020000e+000
      endloop
   endfacet
   facet normal 1.000000e+000 0.000000e+000 0.000000e+000
      outer loop
         vertex 3.000000e+000 0.000000e+000 3.020000e+000
         vertex 3.000000e+000 4.000000e-001 3.040000e+000
         vertex 3.000000e+000 0.000000e+000 3.040000e+000
      endloop
   endfacet
   facet normal 0.000000e+000 0.000000e+000 1.000000e+000
      outer loop
         vertex 3.040000e+000 4.000000e-001 3.020000e+000
         vertex 3.000000e+000 4.000000e-001 3.020000e+000
         vertex 3.040000e+000 0.000000e+000 3.020000e+000
      endloop
   endfacet
   facet normal 0.000000e+000 0.000000e+000 1.000000e+000
      outer loop
         vertex 3.040000e+000 0.000000e+000 3.020000e+000
         vertex 3.000000e+000 4.000000e-001 3.020000e+000
         vertex 3.000000e+000 0.000000e+000 3.020000e+000
      endloop
   endfacet
   facet normal -1.000000e+000 0.000000e+000 0.000000e+000
      outer loop
         vertex 3.040000e+000 4.000000e-001 3.040000e+000
         vertex 3.040000e+000 4.000000e-001 3.020000e+000
         vertex 3.040000e+000 0.000000e+000 3.040000e+000
      endloop
   endfacet
   facet normal -1.000000e+000 0.000000e+000 0.000000e+000
      outer loop
         vertex 3.040000e+000 0.000000e+000 3.040000e+000
         vertex 3.040000e+000 4.000000e-001 3.020000e+000
         vertex 3.040000e+000 0.000000e+000 3.020000e+000
      endloop
   endfacet
   facet normal 0.000000e+000 0.000000e+000 1.000000e+000
      outer loop
         vertex 4.020000e+000 4.000000e-001 3.040000e+000
         vertex 3.040000e+000 4.000000e-001 3.040000e+000
         vertex 4.020000e+000 0.000000e+000 3.040000e+000
      endloop
   endfacet
   facet normal 0.000000e+000 0.000000e+000 1.000000e+000
      outer loop
         vertex 4.020000e+000 0.000000e+000 3.040000e+000
         vertex 3.040000e+000 4.000000e-001 3.040000e+000
         vertex 3.040000e+000 0.000000e+000 3.040000e+000
      endloop
   endfacet
   facet normal 1.000000e+000 0.000000e+000 0.000000e+000
      outer loop
         vertex 4.020000e+000 4.000000e-001 3.000000e+000
         vertex 4.020000e+000 4.000000e-001 3.040000e+000
         vertex 4.020000e+000 0.000000e+000 3.000000e+000
      endloop
   endfacet
   facet normal 1.000000e+000 0.000000e+000 0.000000e+000
      outer loop
         vertex 4.020000e+000 0.000000e+000 3.000000e+000
         vertex 4.020000e+000 4.000000e-001 3.040000e+000
         vertex 4.020000e+000 0.000000e+000 3.040000e+000
      endloop
   endfacet
   facet normal 0.000000e+000 0.000000e+000 -1.000000e+000
      outer loop
         vertex 2.000000e+000 4.000000e-001 3.000000e+000
         vertex 4.020000e+000 4.000000e-001 3.000000e+000
         vertex 2.000000e+000 0.000000e+000 3.000000e+000
      endloop
   endfacet
   facet normal 0.000000e+000 0.000000e+000 -1.000000e+000
      outer loop
         vertex 2.000000e+000 0.000000e+000 3.000000e+000
         vertex 4.020000e+000 4.000000e-001 3.000000e+000
         vertex 4.020000e+000 0.000000e+000 3.000000e+000
      endloop
   endfacet
   facet normal -1.000000e+000 0.000000e+000 0.000000e+000
      outer loop
         vertex 2.000000e+000 4.000000e-001 5.040000e+000
         vertex 2.000000e+000 4.000000e-001 3.000000e+000
         vertex 2.000000e+000 0.000000e+000 5.040000e+000
      endloop
   endfacet
   facet normal -1.000000e+000 0.000000e+000 0.000000e+000
      outer loop
         vertex 2.000000e+000 0.000000e+000 5.040000e+000
         vertex 2.000000e+000 4.000000e-001 3.000000e+000
         vertex 2.000000e+000 0.000000e+000 3.000000e+000
      endloop
   endfacet
   facet normal 0.000000e+000 0.000000e+000 1.000000e+000
      outer loop
         vertex 5.020000e+000 4.000000e-001 5.040000e+000
         vertex 2.000000e+000 4.000000e-001 5.040000e+000
         vertex 5.020000e+000 0.000000e+000 5.040000e+000
      endloop
   endfacet
   facet normal 0.000000e+000 0.000000e+000 1.000000e+000
      outer loop
         vertex 5.020000e+000 0.000000e+000 5.040000e+000
         vertex 2.000000e+000 4.000000e-001 5.040000e+000
         vertex 2.000000e+000 0.000000e+000 5.040000e+000
      endloop
   endfacet
   facet normal 1.000000e+000 0.000000e+000 0.000000e+000
      outer loop
         vertex 5.020000e+000 4.000000e-001 5.000000e+000
         vertex 5.020000e+000 4.000000e-001 5.040000e+000
         vertex 5.020000e+000 0.000000e+000 5.000000e+000
      endloop
   endfacet
   facet normal 1.000000e+000 0.000000e+000 0.000000e+000
      outer loop
         vertex 5.020000e+000 0.000000e+000 5.000000e+000
         vertex 5.020000e+000 4.000000e-001 5.040000e+000
         vertex 5.020000e+000 0.000000e+000 5.040000e+000
      endloop
   endfacet
   facet normal 0.000000e+000 0.000000e+000 -1.000000e+000
      outer loop
         vertex 2.040000e+000 4.000000e-001 5.000000e+000
         vertex 5.020000e+000 4.000000e-001 5.000000e+000
         vertex 2.040000e+000 0.000000e+000 5.000000e+000
      endloop
   endfacet
   facet normal 0.000000e+000 0.000000e+000 -1.000000e+000
      outer loop
         vertex 2.040000e+000 0.000000e+000 5.000000e+000
         vertex 5.020000e+000 4.000000e-001 5.000000e+000
         vertex 5.020000e+000 0.000000e+000 5.000000e+000
      endloop
   endfacet
   facet normal 1.000000e+000 0.000000e+000 0.000000e+000
      outer loop
         vertex 2.040000e+000 4.000000e-001 3.040000e+000
         vertex 2.040000e+000 4.000000e-001 5.000000e+000
         vertex 2.040000e+000 0.000000e+000 3.040000e+000
      endloop
   endfacet
   facet normal 1.000000e+000 0.000000e+000 0.000000e+000
      outer loop
         vertex 2.040000e+000 0.000000e+000 3.040000e+000
         vertex 2.040000e+000 4.000000e-001 5.000000e+000
         vertex 2.040000e+000 0.000000e+000 5.000000e+000
      endloop
   endfacet
   facet normal 0.000000e+000 0.000000e+000 1.000000e+000
      outer loop
         vertex 3.000000e+000 4.000000e-001 3.040000e+000
         vertex 2.040000e+000 4.000000e-001 3.040000e+000
         vertex 3.000000e+000 0.000000e+000 3.040000e+000
      endloop
   endfacet
   facet normal 0.000000e+000 0.000000e+000 1.000000e+000
      outer loop
         vertex 3.000000e+000 0.000000e+000 3.040000e+000
         vertex 2.040000e+000 4.000000e-001 3.040000e+000
         vertex 2.040000e+000 0.000000e+000 3.040000e+000
      endloop
   endfacet
   facet normal 0.000000e+000 1.000000e+000 0.000000e+000
      outer loop
         vertex 3.040000e+000 4.000000e-001 3.040000e+000
         vertex 4.020000e+000 4.000000e-001 3.040000e+000
         vertex 3.040000e+000 4.000000e-001 3.020000e+000
      endloop
   endfacet
   facet normal 0.000000e+000 1.000000e+000 0.000000e+000
      outer loop
         vertex 3.040000e+000 4.000000e-001 3.020000e+000
         vertex 4.020000e+000 4.000000e-001 3.040000e+000
         vertex 4.020000e+000 4.000000e-001 3.000000e+000
      endloop
   endfacet
   facet normal 0.000000e+000 1.000000e+000 0.000000e+000
      outer loop
         vertex 3.040000e+000 4.000000e-001 3.020000e+000
         vertex 4.020000e+000 4.000000e-001 3.000000e+000
         vertex 3.000000e+000 4.000000e-001 3.020000e+000
      endloop
   endfacet
   facet normal 0.000000e+000 1.000000e+000 0.000000e+000
      outer loop
         vertex 3.000000e+000 4.000000e-001 3.020000e+000
         vertex 4.020000e+000 4.000000e-001 3.000000e+000
         vertex 2.000000e+000 4.000000e-001 3.000000e+000
      endloop
   endfacet
   facet normal 0.000000e+000 1.000000e+000 0.000000e+000
      outer loop
         vertex 3.000000e+000 4.000000e-001 3.040000e+000
         vertex 3.000000e+000 4.000000e-001 3.020000e+000
         vertex 2.040000e+000 4.000000e-001 3.040000e+000
      endloop
   endfacet
   facet normal 0.000000e+000 1.000000e+000 0.000000e+000
      outer loop
         vertex 2.040000e+000 4.000000e-001 3.040000e+000
         vertex 3.000000e+000 4.000000e-001 3.020000e+000
         vertex 2.000000e+000 4.000000e-001 3.000000e+000
      endloop
   endfacet
   facet normal 0.000000e+000 1.000000e+000 0.000000e+000
      outer loop
         vertex 2.040000e+000 4.000000e-001 3.040000e+000
         vertex 2.000000e+000 4.000000e-001 3.000000e+000
         vertex 2.040000e+000 4.000000e-001 5.000000e+000
      endloop
   endfacet
   facet normal 0.000000e+000 1.000000e+000 0.000000e+000
      outer loop
         vertex 2.040000e+000 4.000000e-001 5.000000e+000
         vertex 2.000000e+000 4.000000e-001 3.000000e+000
         vertex 2.000000e+000 4.000000e-001 5.040000e+000
      endloop
   endfacet
   facet normal 0.000000e+000 1.000000e+000 0.000000e+000
      outer loop
         vertex 2.040000e+000 4.000000e-001 5.000000e+000
         vertex 2.000000e+000 4.000000e-001 5.040000e+000
         vertex 5.020000e+000 4.000000e-001 5.000000e+000
      endloop
   endfacet
   facet normal 0.000000e+000 1.000000e+000 0.000000e+000
      outer loop
         vertex 5.020000e+000 4.000000e-001 5.000000e+000
         vertex 2.000000e+000 4.000000e-001 5.040000e+000
         vertex 5.020000e+000 4.000000e-001 5.040000e+000
      endloop
   endfacet
   facet normal 0.000000e+000 -1.000000e+000 0.000000e+000
      outer loop
         vertex 3.000000e+000 0.000000e+000 3.020000e+000
         vertex 3.000000e+000 0.000000e+000 3.040000e+000
         vertex 2.040000e+000 0.000000e+000 3.040000e+000
      endloop
   endfacet
   facet normal 0.000000e+000 -1.000000e+000 0.000000e+000
      outer loop
         vertex 4.020000e+000 0.000000e+000 3.000000e+000
         vertex 4.020000e+000 0.000000e+000 3.040000e+000
         vertex 3.040000e+000 0.000000e+000 3.040000e+000
      endloop
   endfacet
   facet normal 0.000000e+000 -1.000000e+000 0.000000e+000
      outer loop
         vertex 3.040000e+000 0.000000e+000 3.040000e+000
         vertex 3.040000e+000 0.000000e+000 3.020000e+000
         vertex 4.020000e+000 0.000000e+000 3.000000e+000
      endloop
   endfacet
   facet normal 0.000000e+000 -1.000000e+000 0.000000e+000
      outer loop
         vertex 4.020000e+000 0.000000e+000 3.000000e+000
         vertex 3.040000e+000 0.000000e+000 3.020000e+000
         vertex 3.000000e+000 0.000000e+000 3.020000e+000
      endloop
   endfacet
   facet normal 0.000000e+000 -1.000000e+000 0.000000e+000
      outer loop
         vertex 4.020000e+000 0.000000e+000 3.000000e+000
         vertex 3.000000e+000 0.000000e+000 3.020000e+000
         vertex 2.000000e+000 0.000000e+000 3.000000e+000
      endloop
   endfacet
   facet normal 0.000000e+000 -1.000000e+000 0.000000e+000
      outer loop
         vertex 2.000000e+000 0.000000e+000 3.000000e+000
         vertex 3.000000e+000 0.000000e+000 3.020000e+000
         vertex 2.040000e+000 0.000000e+000 3.040000e+000
      endloop
   endfacet
   facet normal 0.000000e+000 -1.000000e+000 0.000000e+000
      outer loop
         vertex 2.000000e+000 0.000000e+000 3.000000e+000
         vertex 2.040000e+000 0.000000e+000 3.040000e+000
         vertex 2.000000e+000 0.000000e+000 5.040000e+000
      endloop
   endfacet
   facet normal 0.000000e+000 -1.000000e+000 0.000000e+000
      outer loop
         vertex 2.000000e+000 0.000000e+000 5.040000e+000
         vertex 2.040000e+000 0.000000e+000 3.040000e+000
         vertex 2.040000e+000 0.000000e+000 5.000000e+000
      endloop
   endfacet
   facet normal 0.000000e+000 -1.000000e+000 0.000000e+000
      outer loop
         vertex 2.000000e+000 0.000000e+000 5.040000e+000
         vertex 2.040000e+000 0.000000e+000 5.000000e+000
         vertex 5.020000e+000 0.000000e+000 5.040000e+000
      endloop
   endfacet
   facet normal 0.000000e+000 -1.000000e+000 0.000000e+000
      outer loop
         vertex 5.020000e+000 0.000000e+000 5.040000e+000
         vertex 2.040000e+000 0.000000e+000 5.000000e+000
         vertex 5.020000e+000 0.000000e+000 5.000000e+000
      endloop
   endfacet
   facet normal 0.000000e+000 0.000000e+000 1.000000e+000
      outer loop
         vertex 4.020000e+000 4.000000e-001 4.040000e+000
         vertex 3.000000e+000 4.000000e-001 4.040000e+000
         vertex 4.020000e+000 0.000000e+000 4.040000e+000
      endloop
   endfacet
   facet normal 0.000000e+000 0.000000e+000 1.000000e+000
      outer loop
         vertex 4.020000e+000 0.000000e+000 4.040000e+000
         vertex 3.000000e+000 4.000000e-001 4.040000e+000
         vertex 3.000000e+000 0.000000e+000 4.040000e+000
      endloop
   endfacet
   facet normal 1.000000e+000 0.000000e+000 0.000000e+000
      outer loop
         vertex 4.020000e+000 4.000000e-001 4.000000e+000
         vertex 4.020000e+000 4.000000e-001 4.040000e+000
         vertex 4.020000e+000 0.000000e+000 4.000000e+000
      endloop
   endfacet
   facet normal 1.000000e+000 0.000000e+000 0.000000e+000
      outer loop
         vertex 4.020000e+000 0.000000e+000 4.000000e+000
         vertex 4.020000e+000 4.000000e-001 4.040000e+000
         vertex 4.020000e+000 0.000000e+000 4.040000e+000
      endloop
   endfacet
   facet normal 0.000000e+000 0.000000e+000 -1.000000e+000
      outer loop
         vertex 3.040000e+000 4.000000e-001 4.000000e+000
         vertex 4.020000e+000 4.000000e-001 4.000000e+000
         vertex 3.040000e+000 0.000000e+000 4.000000e+000
      endloop
   endfacet
   facet normal 0.000000e+000 0.000000e+000 -1.000000e+000
      outer loop
         vertex 3.040000e+000 0.000000e+000 4.000000e+000
         vertex 4.020000e+000 4.000000e-001 4.000000e+000
         vertex 4.020000e+000 0.000000e+000 4.000000e+000
      endloop
   endfacet
   facet normal 1.000000e+000 0.000000e+000 0.000000e+000
      outer loop
         vertex 3.040000e+000 4.000000e-001 3.040000e+000
         vertex 3.040000e+000 4.000000e-001 4.000000e+000
         vertex 3.040000e+000 0.000000e+000 3.040000e+000
      endloop
   endfacet
   facet normal 1.000000e+000 0.000000e+000 0.000000e+000
      outer loop
         vertex 3.040000e+000 0.000000e+000 3.040000e+000
         vertex 3.040000e+000 4.000000e-001 4.000000e+000
         vertex 3.040000e+000 0.000000e+000 4.000000e+000
      endloop
   endfacet
   facet normal 0.000000e+000 0.000000e+000 -1.000000e+000
      outer loop
         vertex 3.000000e+000 4.000000e-001 3.040000e+000
         vertex 3.040000e+000 4.000000e-001 3.040000e+000
         vertex 3.000000e+000 0.000000e+000 3.040000e+000
      endloop
   endfacet
   facet normal 0.000000e+000 0.000000e+000 -1.000000e+000
      outer loop
         vertex 3.000000e+000 0.000000e+000 3.040000e+000
         vertex 3.040000e+000 4.000000e-001 3.040000e+000
         vertex 3.040000e+000 0.000000e+000 3.040000e+000
      endloop
   endfacet
   facet normal -1.000000e+000 0.000000e+000 0.000000e+000
      outer loop
         vertex 3.000000e+000 4.000000e-001 4.040000e+000
         vertex 3.000000e+000 4.000000e-001 3.040000e+000
         vertex 3.000000e+000 0.000000e+000 4.040000e+000
      endloop
   endfacet
   facet normal -1.000000e+000 0.000000e+000 0.000000e+000
      outer loop
         vertex 3.000000e+000 0.000000e+000 4.040000e+000
         vertex 3.000000e+000 4.000000e-001 3.040000e+000
         vertex 3.000000e+000 0.000000e+000 3.040000e+000
      endloop
   endfacet
   facet normal 0.000000e+000 1.000000e+000 0.000000e+000
      outer loop
         vertex 3.040000e+000 4.000000e-001 3.040000e+000
         vertex 3.000000e+000 4.000000e-001 3.040000e+000
         vertex 3.040000e+000 4.000000e-001 4.000000e+000
      endloop
   endfacet
   facet normal 0.000000e+000 1.000000e+000 0.000000e+000
      outer loop
         vertex 3.040000e+000 4.000000e-001 4.000000e+000
         vertex 3.000000e+000 4.000000e-001 3.040000e+000
         vertex 3.000000e+000 4.000000e-001 4.040000e+000
      endloop
   endfacet
   facet normal 0.000000e+000 1.000000e+000 0.000000e+000
      outer loop
         vertex 3.040000e+000 4.000000e-001 4.000000e+000
         vertex 3.000000e+000 4.000000e-001 4.040000e+000
         vertex 4.020000e+000 4.000000e-001 4.000000e+000
      endloop
   endfacet
   facet normal 0.000000e+000 1.000000e+000 0.000000e+000
      outer loop
         vertex 4.020000e+000 4.000000e-001 4.000000e+000
         vertex 3.000000e+000 4.000000e-001 4.040000e+000
         vertex 4.020000e+000 4.000000e-001 4.040000e+000
      endloop
   endfacet
   facet normal 0.000000e+000 -1.000000e+000 0.000000e+000
      outer loop
         vertex 4.020000e+000 0.000000e+000 4.000000e+000
         vertex 4.020000e+000 0.000000e+000 4.040000e+000
         vertex 3.040000e+000 0.000000e+000 4.000000e+000
      endloop
   endfacet
   facet normal 0.000000e+000 -1.000000e+000 0.000000e+000
      outer loop
         vertex 3.040000e+000 0.000000e+000 4.000000e+000
         vertex 4.020000e+000 0.000000e+000 4.040000e+000
         vertex 3.000000e+000 0.000000e+000 4.040000e+000
      endloop
   endfacet
   facet normal 0.000000e+000 -1.000000e+000 0.000000e+000
      outer loop
         vertex 3.040000e+000 0.000000e+000 4.000000e+000
         vertex 3.000000e+000 0.000000e+000 4.040000e+000
         vertex 3.040000e+000 0.000000e+000 3.040000e+000
      endloop
   endfacet
   facet normal 0.000000e+000 -1.000000e+000 0.000000e+000
      outer loop
         vertex 3.040000e+000 0.000000e+000 3.040000e+000
         vertex 3.000000e+000 0.000000e+000 4.040000e+000
         vertex 3.000000e+000 0.000000e+000 3.040000e+000
      endloop
   endfacet
endsolid